<svg width="141" height="27" viewBox="0 0 141 27" fill="none" xmlns="http://www.w3.org/2000/svg">
<path d="M44.486 19.086V21H33.31V5.6H44.178V7.514H35.51V12.244H43.232V14.114H35.51V19.086H44.486ZM47.7403 9.34H49.8523V21H47.7403V9.34ZM48.7963 7.096C48.3856 7.096 48.0409 6.964 47.7623 6.7C47.4983 6.436 47.3663 6.11333 47.3663 5.732C47.3663 5.35067 47.4983 5.028 47.7623 4.764C48.0409 4.48533 48.3856 4.346 48.7963 4.346C49.2069 4.346 49.5443 4.478 49.8083 4.742C50.0869 4.99133 50.2263 5.30667 50.2263 5.688C50.2263 6.084 50.0869 6.42133 49.8083 6.7C49.5443 6.964 49.2069 7.096 48.7963 7.096ZM53.8848 4.676H55.9968V21H53.8848V4.676ZM64.2753 9.23C65.8887 9.23 67.1207 9.626 67.9713 10.418C68.8367 11.21 69.2693 12.3907 69.2693 13.96V21H67.2673V19.46C66.9153 20.0027 66.4093 20.4207 65.7493 20.714C65.104 20.9927 64.334 21.132 63.4393 21.132C62.134 21.132 61.0853 20.8167 60.2933 20.186C59.516 19.5553 59.1273 18.7267 59.1273 17.7C59.1273 16.6733 59.5013 15.852 60.2493 15.236C60.9973 14.6053 62.1853 14.29 63.8133 14.29H67.1573V13.872C67.1573 12.9627 66.8933 12.266 66.3653 11.782C65.8373 11.298 65.06 11.056 64.0333 11.056C63.344 11.056 62.6693 11.1733 62.0093 11.408C61.3493 11.628 60.792 11.9287 60.3373 12.31L59.4573 10.726C60.0587 10.242 60.7773 9.87533 61.6133 9.626C62.4493 9.362 63.3367 9.23 64.2753 9.23ZM63.7913 19.504C64.598 19.504 65.2947 19.328 65.8813 18.976C66.468 18.6093 66.8933 18.096 67.1573 17.436V15.808H63.9013C62.112 15.808 61.2173 16.4093 61.2173 17.612C61.2173 18.1987 61.4447 18.6607 61.8993 18.998C62.354 19.3353 62.9847 19.504 63.7913 19.504ZM79.7338 20.318C79.4258 20.582 79.0444 20.7873 78.5898 20.934C78.1351 21.066 77.6658 21.132 77.1818 21.132C76.0084 21.132 75.0991 20.8167 74.4538 20.186C73.8084 19.5553 73.4858 18.6533 73.4858 17.48V11.078H71.5058V9.34H73.4858V6.788H75.5978V9.34H78.9418V11.078H75.5978V17.392C75.5978 18.0227 75.7518 18.5067 76.0598 18.844C76.3824 19.1813 76.8371 19.35 77.4238 19.35C78.0691 19.35 78.6191 19.1667 79.0738 18.8L79.7338 20.318ZM85.6532 7.514H80.3732V5.6H93.1112V7.514H87.8312V21H85.6532V7.514ZM98.9901 21.132C97.8315 21.132 96.7901 20.8753 95.8661 20.362C94.9421 19.8487 94.2161 19.1447 93.6881 18.25C93.1748 17.3407 92.9181 16.314 92.9181 15.17C92.9181 14.026 93.1748 13.0067 93.6881 12.112C94.2161 11.2027 94.9421 10.4987 95.8661 10C96.7901 9.48667 97.8315 9.23 98.9901 9.23C100.149 9.23 101.183 9.48667 102.092 10C103.016 10.4987 103.735 11.2027 104.248 12.112C104.776 13.0067 105.04 14.026 105.04 15.17C105.04 16.314 104.776 17.3407 104.248 18.25C103.735 19.1447 103.016 19.8487 102.092 20.362C101.183 20.8753 100.149 21.132 98.9901 21.132ZM98.9901 19.284C99.7381 19.284 100.405 19.1153 100.992 18.778C101.593 18.426 102.063 17.942 102.4 17.326C102.737 16.6953 102.906 15.9767 102.906 15.17C102.906 14.3633 102.737 13.652 102.4 13.036C102.063 12.4053 101.593 11.9213 100.992 11.584C100.405 11.2467 99.7381 11.078 98.9901 11.078C98.2421 11.078 97.5675 11.2467 96.9661 11.584C96.3795 11.9213 95.9101 12.4053 95.5581 13.036C95.2208 13.652 95.0521 14.3633 95.0521 15.17C95.0521 15.9767 95.2208 16.6953 95.5581 17.326C95.9101 17.942 96.3795 18.426 96.9661 18.778C97.5675 19.1153 98.2421 19.284 98.9901 19.284ZM118.829 9.34V21H116.827V19.24C116.402 19.8413 115.837 20.3107 115.133 20.648C114.444 20.9707 113.688 21.132 112.867 21.132C111.312 21.132 110.088 20.7067 109.193 19.856C108.298 18.9907 107.851 17.722 107.851 16.05V9.34H109.963V15.808C109.963 16.9373 110.234 17.7953 110.777 18.382C111.32 18.954 112.097 19.24 113.109 19.24C114.224 19.24 115.104 18.9027 115.749 18.228C116.394 17.5533 116.717 16.6 116.717 15.368V9.34H118.829ZM124.874 11.298C125.24 10.6233 125.783 10.11 126.502 9.758C127.22 9.406 128.093 9.23 129.12 9.23V11.276C129.002 11.2613 128.841 11.254 128.636 11.254C127.492 11.254 126.59 11.5987 125.93 12.288C125.284 12.9627 124.962 13.9307 124.962 15.192V21H122.85V9.34H124.874V11.298ZM135.153 21.132C134.199 21.132 133.283 21.0073 132.403 20.758C131.523 20.494 130.833 20.164 130.335 19.768L131.215 18.096C131.728 18.4627 132.351 18.756 133.085 18.976C133.818 19.196 134.559 19.306 135.307 19.306C137.155 19.306 138.079 18.778 138.079 17.722C138.079 17.37 137.954 17.0913 137.705 16.886C137.455 16.6807 137.14 16.534 136.759 16.446C136.392 16.3433 135.864 16.2333 135.175 16.116C134.236 15.9693 133.466 15.8007 132.865 15.61C132.278 15.4193 131.772 15.0967 131.347 14.642C130.921 14.1873 130.709 13.5493 130.709 12.728C130.709 11.672 131.149 10.8287 132.029 10.198C132.909 9.55267 134.089 9.23 135.571 9.23C136.348 9.23 137.125 9.32533 137.903 9.516C138.68 9.70667 139.318 9.96333 139.817 10.286L138.915 11.958C137.961 11.342 136.839 11.034 135.549 11.034C134.654 11.034 133.972 11.1807 133.503 11.474C133.033 11.7673 132.799 12.156 132.799 12.64C132.799 13.0213 132.931 13.322 133.195 13.542C133.459 13.762 133.781 13.9233 134.163 14.026C134.559 14.1287 135.109 14.246 135.813 14.378C136.751 14.5393 137.507 14.7153 138.079 14.906C138.665 15.082 139.164 15.39 139.575 15.83C139.985 16.27 140.191 16.886 140.191 17.678C140.191 18.734 139.736 19.5773 138.827 20.208C137.932 20.824 136.707 21.132 135.153 21.132Z" fill="white"/>
<path d="M2 12L4.05 12.1C4.17115 11.0054 4.51811 9.94794 5.06892 8.99435C5.61972 8.04076 6.36241 7.21184 7.25 6.56L6.13 4.84C5.86 4.36 6 3.75 6.5 3.47C7 3.2 7.59 3.36 7.87 3.84L8.8 5.66C9.81087 5.22541 10.8997 5.00128 12 5.00128C13.1003 5.00128 14.1891 5.22541 15.2 5.66L16.13 3.84C16.41 3.36 17 3.2 17.5 3.47C18 3.75 18.14 4.36 17.87 4.84L16.75 6.56C17.6376 7.21184 18.3803 8.04076 18.9311 8.99435C19.4819 9.94794 19.8288 11.0054 19.95 12.1L22 12C22.2652 12 22.5196 12.1054 22.7071 12.2929C22.8946 12.4804 23 12.7348 23 13C23 13.2652 22.8946 13.5196 22.7071 13.7071C22.5196 13.8946 22.2652 14 22 14L19.95 13.9C19.8288 14.9945 19.4819 16.0521 18.9311 17.0056C18.3803 17.9592 17.6376 18.7882 16.75 19.44L17.87 21.16C18.14 21.64 18 22.25 17.5 22.53C17 22.8 16.41 22.64 16.13 22.16L15.2 20.34C14.1891 20.7746 13.1003 20.9987 12 20.9987C10.8997 20.9987 9.81087 20.7746 8.8 20.34L7.87 22.16C7.59 22.64 7 22.8 6.5 22.53C6 22.25 5.86 21.64 6.13 21.16L7.25 19.44C6.36241 18.7882 5.61972 17.9592 5.06892 17.0056C4.51811 16.0521 4.17115 14.9945 4.05 13.9L2 14C1.73478 14 1.48043 13.8946 1.29289 13.7071C1.10536 13.5196 1 13.2652 1 13C1 12.7348 1.10536 12.4804 1.29289 12.2929C1.48043 12.1054 1.73478 12 2 12V12ZM9.07 12.35C9.2 11.74 9.53 11.2 10 10.79L8.34 8.25C7.08537 9.21292 6.26223 10.6327 6.05 12.2L9.07 12.35ZM12 10C12.32 10 12.62 10.05 12.9 10.14L14.28 7.45C13.58 7.16 12.81 7 12 7C11.19 7 10.42 7.16 9.72 7.45L11.1 10.14C11.38 10.05 11.68 10 12 10V10ZM14.93 12.35L17.95 12.2C17.7378 10.6327 16.9146 9.21292 15.66 8.25L14 10.79C14.47 11.2 14.8 11.74 14.93 12.35V12.35ZM14.93 13.65C14.8 14.26 14.47 14.8 14 15.21L15.66 17.75C16.9146 16.7871 17.7378 15.3672 17.95 13.8L14.93 13.65ZM12 16C11.68 16 11.38 15.95 11.09 15.86L9.72 18.55C10.42 18.84 11.19 19 12 19C12.81 19 13.58 18.84 14.28 18.55L12.91 15.86C12.62 15.95 12.32 16 12 16V16ZM9.07 13.65L6.05 13.8C6.27 15.4 7.11 16.81 8.34 17.75L10 15.21C9.53 14.8 9.2 14.26 9.07 13.65V13.65Z" fill="white"/>
</svg>
